<svg xmlns="http://www.w3.org/2000/svg" xmlns:svg="http://www.w3.org/2000/svg" xmlns:xlink="http://www.w3.org/1999/xlink" id="svg2" width="1052.362" height="744.094" version="1.0"><defs id="defs4"><linearGradient id="linearGradient5922"><stop style="stop-color:#b3b3b3;stop-opacity:1" id="stop5924" offset="0"/><stop style="stop-color:#b3b3b3;stop-opacity:0" id="stop5926" offset="1"/></linearGradient><linearGradient id="linearGradient5886"><stop id="stop5888" offset="0" style="stop-color:#666;stop-opacity:1"/><stop style="stop-color:#e3e3e3;stop-opacity:1" id="stop5890" offset=".474"/><stop id="stop5892" offset="1" style="stop-color:#666;stop-opacity:1"/></linearGradient><linearGradient id="linearGradient5840"><stop id="stop5842" offset="0" style="stop-color:#1a1a1a;stop-opacity:1"/><stop style="stop-color:#cbcbcb;stop-opacity:1" id="stop5844" offset=".427"/><stop id="stop5846" offset="1" style="stop-color:#252525;stop-opacity:1"/></linearGradient><linearGradient id="linearGradient5795"><stop style="stop-color:#666;stop-opacity:1" id="stop5797" offset="0"/><stop id="stop5805" offset=".362" style="stop-color:#e3e3e3;stop-opacity:1"/><stop style="stop-color:#666;stop-opacity:1" id="stop5799" offset="1"/></linearGradient><linearGradient id="linearGradient5773"><stop style="stop-color:#3b3b3b;stop-opacity:1" id="stop5775" offset="0"/><stop id="stop5781" offset=".496" style="stop-color:#ececec;stop-opacity:.49803922"/><stop style="stop-color:#000;stop-opacity:0" id="stop5777" offset="1"/></linearGradient><linearGradient id="linearGradient5743"><stop style="stop-color:#626161;stop-opacity:1" id="stop5745" offset="0"/><stop id="stop5753" offset=".447" style="stop-color:#161882;stop-opacity:.49803922"/><stop style="stop-color:#0b0;stop-opacity:0" id="stop5747" offset="1"/></linearGradient><linearGradient id="linearGradient3213"><stop style="stop-color:#000;stop-opacity:1" id="stop3215" offset="0"/><stop style="stop-color:#a7a7a7;stop-opacity:0" id="stop3217" offset="1"/></linearGradient><linearGradient id="linearGradient5810" x1="771.136" x2="1120.569" y1="-287.258" y2="201.835" gradientTransform="matrix(1.0247944,0,0,0.7176622,-1246.1936,214.03097)" gradientUnits="userSpaceOnUse" xlink:href="#linearGradient5795"/><linearGradient id="linearGradient5824" x1="771.136" x2="663.335" y1="-287.258" y2="-144.528" gradientTransform="matrix(1.0247944,0,0,0.7176622,-1227.724,586.99847)" gradientUnits="userSpaceOnUse" xlink:href="#linearGradient5795"/><linearGradient id="linearGradient5838" x1="771.136" x2="1137.297" y1="-287.258" y2="174.012" gradientTransform="matrix(1.0247944,0,0,0.7176622,-1246.1936,214.03097)" gradientUnits="userSpaceOnUse" xlink:href="#linearGradient5840"/></defs><metadata id="metadata7"/><g id="layer1"><g id="g3189"><path id="path3265" d="M 256.90625,209.34375 C 245.27561,209.38319 234.38709,213.94209 226.03125,221.0625 C 216.48171,229.20011 209.59283,242.94767 214.65625,256.65625 L 288.125,455.5625 C 291.48237,464.65215 295.87551,473.99003 303.21875,481.625 C 310.56199,489.25997 321.45303,494.71875 334.15625,494.71875 L 805.34375,494.71875 C 817.97624,494.71876 828.98878,489.54948 836.625,481.90625 C 844.26122,474.26302 848.88495,464.56763 851.65625,454.6875 L 889.5,319.75 C 893.24724,306.39046 886.23452,293.51892 877,286.21875 C 867.76548,278.91858 856.12028,274.84557 844.4375,273.5625 L 261.9375,209.59375 C 260.25138,209.40857 258.56777,209.33812 256.90625,209.34375 z" xlink:href="#rect2474" style="fill:#fff;fill-opacity:1;stroke:#000;stroke-width:2.10967277999999991;stroke-linejoin:round;stroke-miterlimit:4;stroke-opacity:1"/><path id="rect2474" d="M 841.1984,285.00037 L 258.69824,221.02711 C 239.31628,218.89848 217.30488,236.03474 223.45207,252.67748 L 296.91964,451.58125 C 303.06684,468.22399 312.63943,483.23161 332.16581,483.23161 L 803.35147,483.23161 C 822.87785,483.23161 833.82838,468.58449 838.59765,451.58125 L 876.44458,316.65074 C 881.21385,299.6475 860.58036,287.129 841.1984,285.00037 z" style="fill:#66b366;fill-opacity:1;stroke:#000;stroke-width:2.10967277999999991;stroke-linejoin:round;stroke-miterlimit:4;stroke-opacity:1"/></g><g id="g3251" transform="matrix(0.913744,0,0,0.3451662,176.2736,220.85042)" style="opacity:1"><g id="g3253" transform="matrix(2.0484578,-1.263301,0.1197948,2.5356515,-182.46458,-362.9203)"><path style="fill:#666;fill-opacity:1;fill-rule:evenodd;stroke:none;stroke-width:1px;stroke-linecap:butt;stroke-linejoin:miter;stroke-opacity:1" id="path3263" d="M 291.78125,273.5625 C 247.88427,272.92937 197.14434,285.95647 151.3125,305.1875 C 105.48066,324.41853 64.633863,349.73338 40.625,374.8125 C 39.587603,375.89202 39.04008,377.35083 39.111013,378.84633 C 39.181946,380.34183 39.865085,381.74226 41,382.71875 C 79.595929,415.93675 166.14169,457.95278 244.96875,470.84375 C 284.38228,477.28923 321.94436,476.49105 350.625,462.34375 C 379.30564,448.19645 398.18956,420.0057 398.9375,375.65625 C 399.5452,339.62233 388.08647,313.71403 368.46875,297.28125 C 348.85103,280.84847 321.81559,273.99569 291.78125,273.5625 z" xlink:href="#path3255"/><path style="fill:#fe0;fill-opacity:1;fill-rule:evenodd;stroke:none;stroke-width:1px;stroke-linecap:butt;stroke-linejoin:miter;stroke-opacity:1" id="path3255" d="M 393.50906,375.56396 C 396.40371,203.9253 122.46857,297.21173 44.57143,378.58133 C 119.01759,442.65421 390.61482,547.17833 393.50906,375.56396 z"/><path style="fill:#ffb500;fill-opacity:1;fill-rule:evenodd;stroke:none;stroke-width:1px;stroke-linecap:butt;stroke-linejoin:miter;stroke-opacity:1" id="path3257" d="M 385.4286,375.1448 C 388.01423,252.50309 143.32293,319.15945 73.741661,377.30082 C 140.24036,423.0831 382.84333,497.76917 385.4286,375.1448 z"/><path style="fill:#ff6c00;fill-opacity:1;fill-rule:evenodd;stroke:none;stroke-width:1px;stroke-linecap:butt;stroke-linejoin:miter;stroke-opacity:1" id="path3259" d="M 382.08135,375.00509 C 383.96651,268.69569 205.56124,326.47536 154.8293,376.87398 C 203.31374,416.55939 380.19638,481.29945 382.08135,375.00509 z"/><path style="fill:#e42800;fill-opacity:1;fill-rule:evenodd;stroke:none;stroke-width:1px;stroke-linecap:butt;stroke-linejoin:miter;stroke-opacity:1" id="path3261" d="M 378.29864,374.84209 C 379.58638,287.58705 257.71919,335.01058 223.06461,376.37601 C 256.18393,408.9484 377.01103,462.08477 378.29864,374.84209 z"/></g></g><text style="font-size:178.33847046px;font-style:italic;font-variant:normal;font-weight:700;font-stretch:normal;opacity:1;fill:#fff;fill-opacity:1;stroke:#000;stroke-width:1.99999785;stroke-linecap:butt;stroke-linejoin:miter;stroke-miterlimit:4;stroke-dasharray:none;stroke-opacity:1;font-family:UnDotum;-inkscape-font-specification:UnDotum Bold Italic" id="text3247" x="352.821" y="466.724" transform="matrix(1.0688669,0,-0.2132749,0.9355701,0,0)" xml:space="preserve"><tspan id="tspan3249" x="352.821" y="466.724" style="font-size:178.33847046px;font-style:italic;font-variant:normal;font-weight:700;font-stretch:normal;fill:#fff;stroke:#000;stroke-width:1.99999785;stroke-miterlimit:4;stroke-dasharray:none;stroke-opacity:1;font-family:UnDotum;-inkscape-font-specification:UnDotum Bold Italic">Thrust</tspan></text></g></svg>